<?xml version="1.0" encoding="UTF-8" standalone="no"?>
<svg
   xmlns:dc="http://purl.org/dc/elements/1.1/"
   xmlns:cc="http://creativecommons.org/ns#"
   xmlns:rdf="http://www.w3.org/1999/02/22-rdf-syntax-ns#"
   xmlns:svg="http://www.w3.org/2000/svg"
   xmlns="http://www.w3.org/2000/svg"
   xmlns:sodipodi="http://sodipodi.sourceforge.net/DTD/sodipodi-0.dtd"
   xmlns:inkscape="http://www.inkscape.org/namespaces/inkscape"
   width="214.6913mm"
   height="214.6913mm"
   viewBox="0 0 214.6913 214.6913"
   version="1.1"
   id="svg8"
   inkscape:version="1.0.2 (e86c870879, 2021-01-15)"
   sodipodi:docname="cb.svg">
  <defs
     id="defs2">
    <rect
       x="832.81683"
       y="-246.96906"
       width="690.62842"
       height="737.51703"
       id="rect851" />
  </defs>
  <sodipodi:namedview
     id="base"
     pagecolor="#ffffff"
     bordercolor="#666666"
     borderopacity="1.0"
     inkscape:pageopacity="0.0"
     inkscape:pageshadow="2"
     inkscape:zoom="0.24748737"
     inkscape:cx="712.09188"
     inkscape:cy="679.10962"
     inkscape:document-units="mm"
     inkscape:current-layer="layer1"
     inkscape:document-rotation="0"
     showgrid="false"
     inkscape:window-width="1920"
     inkscape:window-height="1050"
     inkscape:window-x="0"
     inkscape:window-y="30"
     inkscape:window-maximized="1" />
  <metadata
     id="metadata5">
    <rdf:RDF>
      <cc:Work
         rdf:about="">
        <dc:format>image/svg+xml</dc:format>
        <dc:type
           rdf:resource="http://purl.org/dc/dcmitype/StillImage" />
        <dc:title></dc:title>
      </cc:Work>
    </rdf:RDF>
  </metadata>
  <g
     inkscape:label="Layer 1"
     inkscape:groupmode="layer"
     id="layer1"
     transform="translate(350.06052,-97.666916)">
    <rect
       style="fill:#ffffff;fill-opacity:1;stroke-width:0.665001;stroke-linejoin:round"
       id="rect880"
       width="214.6913"
       height="214.6913"
       x="-350.06052"
       y="97.666916"
       ry="24.583479" />
    <g
       aria-label="B"
       id="text857"
       style="font-style:normal;font-variant:normal;font-weight:normal;font-stretch:normal;font-size:250.784px;line-height:1.25;font-family:'Nimbus Roman';-inkscape-font-specification:'Nimbus Roman, Normal';font-variant-ligatures:normal;font-variant-caps:normal;font-variant-numeric:normal;font-variant-east-asian:normal;stroke-width:0.264583"
       transform="translate(0,-1.3516198)">
      <path
         d="m -282.18363,126.78633 c 21.19787,0.75901 24.07526,0.5924 24.07526,0.5924 v 157.27436 l -24.07526,1.03275 v 3.68785 h 76.79997 c 19.31037,0 31.93721,-5.26647 41.21622,-13.79312 9.02822,-8.02509 14.0439,-19.31037 14.0439,-31.348 -1.35606,-24.86404 -21.727,-36.52912 -35.75725,-40.02144 14.98771,-8.7075 27.0075,-21.76778 27.23059,-38.22317 0,-28.08781 -17.14095,-42.63328 -60.27579,-42.63328 h -63.25764 z m 39.15475,80.83177 c 24.32605,0 39.40071,1.50471 48.42893,5.26647 14.29469,5.76803 21.06586,16.05017 21.06586,31.59878 0,13.54234 -5.26646,24.99364 -15.29782,30.76168 -8.02509,4.51411 -18.30724,8.61129 -34.85898,8.61129 -12.28842,0 -19.33799,-0.18576 -19.33799,-0.18576 z m 0,-4.38672 v -74.83014 c 5.81239,0 12.67116,0.15303 20.09034,0.0254 27.83703,-0.75235 44.13799,16.24472 44.13799,38.5645 0,19.81193 -12.78999,35.73871 -36.86525,35.98949 z"
         style="font-style:normal;font-variant:normal;font-weight:normal;font-stretch:normal;font-size:250.784px;font-family:'Nimbus Roman';-inkscape-font-specification:'Nimbus Roman, Normal';font-variant-ligatures:normal;font-variant-caps:normal;font-variant-numeric:normal;font-variant-east-asian:normal;stroke-width:0.264583"
         id="path859"
         sodipodi:nodetypes="cccccsccccsccccscscccccscc" />
    </g>
    <path
       style="fill:#000000;stroke-width:1"
       d="m -297.41418,251.24712 c -7.31973,-0.36042 -14.17169,-2.79845 -19.88498,-7.07539 -2.92128,-2.18686 -5.52953,-4.75523 -7.84474,-7.72482 -3.11106,-3.99037 -5.69204,-8.64483 -7.52354,-13.56769 -2.64891,-7.12 -3.65353,-15.1509 -2.86494,-22.90226 0.9195,-9.03816 4.18834,-17.73053 9.38277,-24.95024 3.20255,-4.45121 6.62112,-7.79863 10.67739,-10.45516 4.37217,-2.86342 9.53824,-4.8915 14.15055,-5.55518 1.38879,-0.19983 2.07833,-0.24994 3.75554,-0.27289 2.09877,-0.0287 3.49502,0.0756 5.40537,0.40389 4.73687,0.814 9.16145,2.78763 13.04669,5.81961 1.5453,1.20593 2.0488,1.55301 2.82369,1.94651 1.02019,0.51807 1.86735,0.73024 2.92901,0.73354 1.0039,0.003 1.88855,-0.20748 2.63356,-0.62696 0.48031,-0.27045 0.98316,-0.78009 1.21724,-1.23371 0.29314,-0.56805 0.3236,-0.73405 0.34852,-1.89948 l 0.0221,-1.03114 h 1.2541 1.2541 v 3.81345 c 0,2.09739 -0.013,8.12505 -0.0289,13.39478 l -0.0289,9.58133 -1.04525,-0.0116 -1.04526,-0.0116 -0.13485,-0.84662 c -0.0742,-0.46565 -0.18793,-1.1983 -0.25279,-1.62813 -0.9048,-5.99539 -3.22633,-11.52444 -6.86504,-16.35004 -0.9325,-1.23668 -2.38185,-2.79588 -3.47201,-3.73519 -1.60342,-1.38155 -3.45444,-2.6002 -5.33523,-3.51257 -1.14156,-0.55376 -1.88017,-0.85604 -3.03394,-1.24163 -2.89612,-0.96791 -5.71143,-1.37452 -8.78039,-1.26815 -2.99633,0.10386 -6.06992,0.79568 -8.40482,1.8918 -0.9043,0.42452 -1.91566,1.05818 -3.05717,1.91544 -4.29169,3.22303 -7.51127,7.63855 -9.24824,12.68356 -0.79847,2.31915 -1.87564,6.99009 -2.55815,11.09295 -0.71143,4.27673 -1.1172,8.10231 -1.37922,13.00327 -0.0731,1.36793 -0.0736,7.00752 -5.6e-4,8.40112 0.32111,6.13691 1.03975,11.13581 2.35932,16.41148 0.96443,3.85582 2.61158,8.5714 3.86716,11.07124 3.67088,7.3086 11.35084,11.87358 19.33149,11.49067 1.98254,-0.0951 3.48711,-0.33619 5.33366,-0.85456 1.25971,-0.35364 2.1184,-0.66238 3.37681,-1.21415 5.14567,-2.25619 9.82605,-6.32529 12.785,-11.11521 0.63903,-1.03446 2.22581,-3.95786 2.74454,-5.05641 1.26836,-2.68606 2.13114,-6.25336 2.26854,-9.37962 0.0528,-1.20008 0.17548,-3.31662 0.19337,-3.33451 0.008,-0.008 0.52706,5.6e-4 1.15438,0.0173 l 1.1406,0.0311 -0.0288,5.27551 c -0.0159,2.90153 -0.0288,9.54121 -0.0288,14.75484 v 9.47934 h -1.12801 -1.128 l -0.021,-0.0977 c -0.0115,-0.0537 -0.0525,-0.26375 -0.091,-0.46673 -0.2218,-1.16915 -0.58367,-2.34167 -0.97347,-3.15422 -0.42765,-0.89145 -0.80569,-1.35769 -1.37518,-1.69602 -0.48463,-0.28791 -0.90681,-0.41295 -1.47479,-0.43679 -1.35334,-0.0568 -2.56542,0.5241 -4.79303,2.2971 -2.60096,2.07014 -5.07367,3.55174 -8.02787,4.81013 -3.04977,1.2991 -6.78501,2.22732 -9.62099,2.39085 -0.81411,0.0469 -0.93663,0.0467 -1.97546,-0.004 z"
       id="path847"
       sodipodi:nodetypes="sssssssssssssssscccsscccscsssssssssscsssscssssccssccccsssssssss" />
  </g>
</svg>
