<?xml version="1.0" encoding="UTF-8" standalone="no"?>
<svg
   xmlns:dc="http://purl.org/dc/elements/1.1/"
   xmlns:cc="http://creativecommons.org/ns#"
   xmlns:rdf="http://www.w3.org/1999/02/22-rdf-syntax-ns#"
   xmlns:svg="http://www.w3.org/2000/svg"
   xmlns="http://www.w3.org/2000/svg"
   xmlns:sodipodi="http://sodipodi.sourceforge.net/DTD/sodipodi-0.dtd"
   xmlns:inkscape="http://www.inkscape.org/namespaces/inkscape"
   width="1145.2098mm"
   height="256.56085mm"
   viewBox="0 0 1145.2098 256.56085"
   version="1.1"
   id="svg8"
   sodipodi:docname="clothes_brand.svg"
   inkscape:version="1.0.1 (3bc2e813f5, 2020-09-07, custom)">
  <sodipodi:namedview
     pagecolor="#ffffff"
     bordercolor="#666666"
     borderopacity="1"
     objecttolerance="10"
     gridtolerance="10"
     guidetolerance="10"
     inkscape:pageopacity="0"
     inkscape:pageshadow="2"
     inkscape:window-width="1920"
     inkscape:window-height="1050"
     id="namedview14"
     showgrid="false"
     inkscape:zoom="0.19228211"
     inkscape:cx="2662.7199"
     inkscape:cy="1167.0068"
     inkscape:window-x="0"
     inkscape:window-y="30"
     inkscape:window-maximized="1"
     inkscape:current-layer="layer1" />
  <defs
     id="defs2" />
  <metadata
     id="metadata5">
    <rdf:RDF>
      <cc:Work
         rdf:about="">
        <dc:format>image/svg+xml</dc:format>
        <dc:type
           rdf:resource="http://purl.org/dc/dcmitype/StillImage" />
        <dc:title />
      </cc:Work>
    </rdf:RDF>
  </metadata>
  <g
     id="layer1"
     transform="translate(605.12734,-58.919691)">
    <path
       id="rect848"
       style="fill:#000000;stroke-width:2.51339;stroke-linejoin:round"
       d="m 55.126363,222.6886 c 0,0 -22.829185,5.10378 -39.809957,14.53406 -51.136795,40.47428 -159.267576,117.90429 -159.267576,117.90429 3.53951,1.22835 6.56535,2.86322 8.50781,5.06641 0.4877,0.55316 0.94042,1.11649 1.375,1.6875 z m 0.686727,0.92749 -188.59825,140.61047 c -0.27685,3.29738 -3.80859,8.18555 -3.80859,8.18555 0.24902,1.902 6.33738,1.76526 8.63867,2.30664 0,0 103.990399,-79.32415 158.234377,-117.2793 10.065215,-9.82126 25.533793,-33.82336 25.533793,-33.82336 z m -310.8795,162.5636 c -6.43414,-0.3876 -14.43947,5.90442 -14.99609,12.20117 6.21726,0.24142 18.84766,19.54492 18.84766,19.54492 l 9.82226,13.92188 -4.40234,3.25586 c 2.93956,0.90663 5.63129,2.71071 7.60156,5.37304 0.62104,0.8392 1.12778,1.72512 1.54688,2.63672 1.08841,1.66438 1.91385,3.48654 2.44726,5.40234 l 3.32227,-2.45703 9.2539,12.24805 c 0,0 14.93714,17.44919 13.33399,23.54688 6.5968,1.39516 15.66622,-5.31667 16.25976,-12.03321 -6.10697,-0.56154 -18.84961,-19.54492 -18.84961,-19.54492 l -14.55859,-20.32422 -15.03125,-20.05664 c 0,0 -14.5537,-17.78488 -13.33398,-23.54687 -0.4123,-0.0872 -0.83473,-0.14213 -1.26368,-0.16797 z m 40.04493,21.52343 -14.53907,10.73829 6.72657,9.08984 22.29101,-16.25977 c -0.55483,-2.24223 -5.81661,-0.0449 -6.84961,0.59961 -1.25456,0.78277 -4.11644,1.39197 -6.10937,1.30469 -1.6591,-0.0727 -2.19596,-3.18903 -1.51953,-5.47266 z m 14.00195,6.35157 -20.30469,15.51562 6.72656,9.08985 11.43555,-8.63477 c -0.38603,-3.17669 2.5274,-11.64672 2.14258,-15.9707 z m -67.9566,37.99602 -5.48481,4.26765 c 0.90164,0.27809 4.89381,2.01753 5.7349,2.46335 -0.0899,-0.45918 1.46694,-1.19713 1.43253,-2.64825 -0.0344,-1.45112 -1.66001,-3.61541 -1.68262,-4.08275 z m -8.43989,6.45515 -4.98242,3.68555 c 2.98159,1.03281 5.58153,2.94243 7.45899,5.47851 1.87669,2.53597 2.94347,5.57974 3.06054,8.73242 l 4.98047,-3.68554 c 0.28662,-1.87208 0.36672,-3.80355 0.084,-5.60742 -1.77313,-1.84797 -0.65206,-4.37816 -4.08594,-6.41797 -1.87778,-1.18551 -4.19457,-1.84739 -6.51563,-2.18555 z m -10.17968,6.91797 c -2.45193,0.0149 -4.83562,0.80906 -6.80664,2.26758 -0.0268,0.0194 -0.0535,0.0389 -0.0801,0.0586 -5.06864,3.81906 -6.11124,11.01001 -2.33594,16.11133 3.79835,5.13329 11.03908,6.21502 16.17188,2.41601 5.13264,-3.79895 6.21348,-11.03958 2.41406,-16.17187 -2.19534,-2.96512 -5.67398,-4.70444 -9.36328,-4.68164 z m 23.60937,4.11328 c 0.0224,0.33049 0.0402,0.66166 0.041,0.99219 l 0.68359,-0.50586 c -0.24516,-0.15664 -0.48676,-0.3188 -0.72461,-0.48633 z m -23.92187,0.48828 c 2.22114,-0.008 4.26528,1.14774 5.76562,3.09961 2.60073,3.51501 2.32888,6.98052 -1.18554,9.58203 -3.51484,2.60248 -5.73176,1.33339 -8.33399,-2.18164 -2.60164,-3.51586 -3.87373,-6.54936 -0.35742,-9.15039 1.38152,-0.92051 2.77864,-1.34471 4.11133,-1.34961 z"
       transform="scale(0.26458333)" />
    <path
       id="path899"
       style="fill:#000000;stroke-width:3.77953"
       d="m -167.31055,355.31836 c -3.48616,0.0225 -6.4858,0.72329 -11.4707,2.32226 -10.51756,3.37369 -22.8718,11.54378 -26.17969,17.31446 -1.74419,3.04262 -2.06704,5.58791 -1.63672,12.91211 0.49302,8.39176 0.27122,9.51402 -2.75976,14.00976 -5.91414,8.77217 -2.23194,11.26297 7.58984,5.13477 3.29813,-2.05777 8.84502,-4.73366 12.32813,-5.94727 3.4831,-1.2136 7.36397,-3.1627 8.62304,-4.33007 2.62712,-2.4358 11.21257,-3.56855 10.93946,-1.44336 -0.0967,0.75265 -4.68356,3.31787 -10.19336,5.70117 -10.27258,4.4434 -16.67354,5.71798 -17.29617,10.56276 1.37585,8.74644 -7.09909,21.71672 3.44793,19.68863 3.54722,-0.93336 2.05559,6.18644 6.3541,7.65486 3.53141,2.41368 5.6061,5.32207 7.40039,10.375 2.39047,6.73194 2.71977,7.05038 8.01172,7.73047 4.99399,0.6418 6.24544,0.0996 13.16796,-5.70118 9.86165,-8.26378 13.86326,-8.32028 8.14649,-0.11523 -1.35441,1.94374 -2.78118,5.94567 -3.16016,8.89453 -0.67486,5.1885 -0.22506,6.47031 7.99805,22.78906 0.96326,1.91158 1.82456,5.85626 1.91406,8.76563 0.12601,4.09587 0.75718,5.36737 2.79297,5.6289 1.44611,0.18584 2.7272,-0.42994 2.84766,-1.36718 0.12044,-0.93721 1.70969,-3.88613 3.53125,-6.55274 1.82155,-2.66657 3.11311,-5.94855 2.86914,-7.29297 -0.37758,-2.08085 0.1327,-2.2484 3.43554,-1.13476 5.4622,1.84176 15.96745,-1.87822 19.44532,-6.88477 1.48417,-2.13649 3.23567,-7.29083 3.89453,-11.45508 1.45087,-9.17445 2.74435,-10.455 5.708983,-5.65624 1.950879,3.15782 1.989623,4.79464 0.296875,12.13671 -1.138858,4.94011 -3.766438,11.25571 -6.287108,15.11329 -3.95782,6.05706 -4.61933,6.51399 -7.69727,5.31445 -11.55312,-4.50248 -12.25828,-4.16173 -16.84179,8.12695 -1.65826,4.44609 -4.06616,9.31239 -5.35157,10.81445 -3.97597,4.64595 -10.71916,2.10227 -16.03515,-6.05078 -4.54676,-6.97334 -10.29934,-4.58239 -14.13867,5.87696 l -1.41407,3.85156 -1.01953,-3.86328 c -1.97563,-7.48192 -6.19918,-6.99731 -18.89453,2.16211 -4.2296,3.05151 -8.56082,5.43564 -9.625,5.29882 -9.92812,-15.54765 -20.03658,-24.57459 -31.93837,-33.91532 -3.68054,-5.05025 -10.13392,-19.17257 -10.87608,-21.87569 -0.43103,-7.45276 0.60146,-14.47387 3.06836,-20.33008 v -21.21484 c -5.31451,3.45048 -10.02789,7.89036 -12.74805,11.52734 -3.11221,4.50013 -3.7659,10.78568 -1.63672,15.74219 1.39451,3.2462 1.36851,4.65006 -0.13086,6.91211 -1.0349,1.56121 -2.42861,4.13061 -3.09765,5.70898 -1.75524,4.14104 -5.79524,5.33546 -9.74805,2.88281 -2.66023,-1.65047 -3.64758,-1.67993 -5.60547,-0.16796 -3.99773,3.08723 10.35412,23.98899 16.1202,26.50813 10.63798,20.75475 24.31448,37.36303 40.38988,49.58039 10.45603,7.5362 28.28932,20.2699 39.35125,21.27476 -0.0735,-5.92437 -1.32481,-15.55897 -2.78125,-21.40821 -2.66002,-10.6837 -2.32933,-17.55157 0.875,-18.16601 1.19234,-0.22866 1.50574,1.35775 1.01758,5.15625 -0.49251,3.83233 0.13381,6.94131 2.07421,10.30078 1.58281,2.74035 3.07831,8.63877 3.47657,13.70508 0.3845,4.89203 1.02857,9.62097 1.43164,10.50976 1.49937,3.30588 7.47024,5.22248 17.38672,5.57813 9.23389,0.33131 10.359,0.0422 14.94531,-3.83203 4.09394,-3.45823 5.09675,-5.23881 5.72266,-10.21289 1.18063,-9.29341 -4.21777,-17.91696 -11.91602,-19.03321 -1.59025,-0.23059 -3.18303,-1.06062 -3.53906,-1.8457 -0.40381,-0.8903 2.30129,-1.04984 7.1875,-0.42187 5.98994,0.76977 8.76249,0.45294 11.77539,-1.34766 6.16096,-3.68232 7.16581,-0.9884 3.76562,10.0957 -4.11586,13.41759 -4.06041,14.79058 0.89844,22.26758 6.36342,9.59478 5.4942,11.25521 -3.5293,6.74805 -4.00399,-1.99998 -4.35238,-1.88877 -10.5664,3.34765 -4.89884,4.12819 -7.36683,5.29388 -10.38281,4.90625 -5.60563,-0.72037 -6.69088,3.02657 -3.08204,10.64844 4.36843,9.22594 6.62116,11.12458 16.39063,13.8125 4.89843,1.34778 9.65615,3.42103 10.57226,4.60742 1.45273,1.88119 1.29247,2.44518 -1.25195,4.41016 -1.60479,1.23923 -5.38403,2.32928 -8.39844,2.42187 -7.5126,0.23108 -13.12182,5.4092 -14.09961,13.01758 -1.27739,9.93963 3.48539,11.99739 14.34961,6.19922 3.77826,-2.01645 8.89301,-4.17991 11.36719,-4.80859 11.84889,-9.35819 77.531515,-0.0643 78.875001,-8.19531 1.339703,-1.24876 1.157985,-3.86869 -0.783203,-11.31836 -2.257009,-8.6617 -2.292346,-10.21568 -0.335937,-14.60938 3.103933,-6.97134 3.100054,-8.58562 -0.03125,-14.95703 l -2.78125,-5.66211 3.322265,-3.98633 c 6.604257,-7.92317 7.274391,-9.28979 5.746094,-11.70117 -1.934811,-3.05261 -8.076067,-3.62795 -11.101562,-1.04102 -1.364822,1.16701 -3.132076,4.11574 -3.927735,6.55274 -2.767102,8.47483 -6.178504,9.3054 -12.039062,2.93164 -3.252805,-3.53764 -4.383372,-3.96604 -10.441407,-3.94336 -9.099881,0.0339 -17.916396,2.80462 -23.412109,7.35547 -5.482915,4.54023 -8.103215,3.1618 -9.378905,-4.93164 -0.46391,-2.94357 -1.79123,-7.59133 -2.95117,-10.32813 -2.17824,-5.13963 -3.28581,-24.884 -1.51758,-27.06445 0.54967,-0.67805 4.04054,-0.84075 7.75586,-0.36328 5.234411,0.67272 8.783315,0.0684 15.769529,-2.67969 4.958544,-1.95054 9.796773,-3.44472 10.75,-3.32226 2.588712,0.33267 7.018528,-3.94611 6.841797,-6.60743 -0.140628,-2.11596 -1.366256,-3.32568 -6.964844,-6.875 -1.62885,-1.03268 -2.961687,-7.88364 -3.751953,-19.27929 l -0.236328,-3.39063 2.029297,3.22071 c 1.115736,1.77228 2.905138,4.8793 3.976563,6.90429 2.304929,4.3567 10.284855,10.11559 14.826171,10.69922 2.304779,0.2962 4.882609,-1.27268 9.09375,-5.53516 5.881323,-5.95305 8.97568,-7.16326 19.337891,-7.5625 4.47785,-0.17249 5.122236,-0.63458 5.552735,-3.98437 0.573335,-4.46124 -3.700567,-9.66787 -13.242188,-16.13086 -3.473734,-2.35302 -10.657816,-8.36551 -15.964844,-13.36133 -9.504665,-8.9472 -28.679314,-21.02408 -34.585937,-21.7832 -4.294545,-0.55189 -6.460596,1.6886 -7.201172,7.45117 -0.424468,3.30285 -1.381615,5.24515 -2.75,5.57813 -3.240087,0.78806 -5.670887,-2.80771 -5.068357,-7.4961 0.36198,-2.81665 -0.43608,-5.4265 -2.38281,-7.79101 -2.9249,-3.55257 -2.93525,-3.55537 -9.68555,-2.06446 -9.3625,2.06793 -15.65448,-0.59501 -21.12305,-8.93945 -3.39789,-5.18479 -3.88019,-7.01428 -2.99023,-11.3418 0.91356,-4.4423 1.9624,-5.6334 7.54883,-8.57422 4.62398,-2.4342 6.60553,-4.32797 6.89648,-6.59179 0.59637,-4.64051 -2.51294,-5.04428 -17.26172,-2.23828 -15.07481,2.86802 -17.46854,2.82293 -16.4375,-0.3086 0.88379,-2.68441 5.34016,-4.30453 14.55664,-5.29492 3.74068,-0.40195 8.05092,-1.03882 9.57813,-1.41602 1.52721,-0.37722 3.86041,-0.88588 5.18554,-1.1289 2.7519,-0.5051 3.76155,-4.29411 1.30078,-4.88281 -0.89666,-0.2143 -4.1752,-0.5805 -7.28515,-0.81446 -6.61599,-0.49777 -8.3699,-3.55845 -4.1211,-7.1914 1.44743,-1.23763 2.39055,-3.24291 2.09571,-4.45508 -0.972,-3.99635 -11.41802,-9.12871 -21.53125,-10.58008 -2.97559,-0.42703 -5.24229,-0.65804 -7.33399,-0.64453 z m 10.86133,21.14844 c 1.57649,-0.0986 0.89776,2.00437 5.46875,2.59179 3.57062,0.45891 -8.16759,3.07854 -10.24414,1.39453 -0.96068,-0.77906 -0.80896,-1.40071 0.52344,-2.13867 2.35289,-1.30317 3.53537,-1.80285 4.25195,-1.84765 z m -17.93164,27.82226 c 1.33921,0.17208 2.37424,6.99869 1.34961,8.90039 -1.02458,1.90126 -8.79954,1.82973 -8.54102,-0.0781 0.18685,-1.39846 6.32851,-8.93301 7.19141,-8.82227 z M -260.8418,435.875 c -2.69991,0.26353 -3.44935,3.63973 -0.93164,7.92969 0.58658,0.99957 2.18326,1.96135 3.54883,2.13672 3.85695,0.49568 4.42907,-7.21297 0.68359,-9.21094 -1.28478,-0.68534 -2.40081,-0.94331 -3.30078,-0.85547 z m 145.53321,2.15039 c 0.33163,0.005 0.61,0.11486 0.79882,0.35938 0.39486,0.51121 -0.0199,1.96489 -0.92187,3.23046 v 0.002 c -1.91687,2.68943 -4.29492,2.77962 -3.95703,0.15039 0.22949,-1.78571 2.643,-3.76291 4.08008,-3.74219 z m -149.625,11.24219 c -0.20216,-0.0115 -0.38567,-0.0105 -0.55274,0.002 -1.11382,0.0833 -1.48673,0.71387 -1.66406,2.09375 -0.18822,1.46461 0.61858,3.41145 1.79492,4.32617 3.35826,2.61139 6.14627,1.86636 6.61328,-1.76757 0.35251,-2.74292 -0.28123,-3.44751 -3.82226,-4.25391 -0.98975,-0.22542 -1.76268,-0.3658 -2.36914,-0.40039 z m 143.18164,2.91601 c 0.85597,-0.0314 1.77681,0.427 2.60547,1.5 1.49261,1.93293 0.31673,2.57472 -0.0547,5.46485 -0.60258,4.6888 -5.05057,3.57084 -5.58985,-0.97461 -0.41315,-3.48252 1.15592,-5.92107 3.03907,-5.99024 z m -132.76367,14.37696 c 0.35674,0.0101 0.63698,0.10937 0.79687,0.3164 0.36237,0.46912 0.1591,1.78173 -0.45313,2.91797 h -0.002 c -1.25219,2.32403 -6.74164,2.22867 -5.61914,-0.0976 0.75793,-1.57078 3.73142,-3.18064 5.27735,-3.13672 z m 96.0625,3.38281 c -0.47137,-0.059 -1.00383,0.44463 -1.88477,1.37305 -2.91899,3.07615 -5.58269,16.59457 -1.95703,17.06054 1.9755,0.25387 3.13566,2.21853 6.12109,2.04883 6.62454,-0.37636 7.31792,-1.57348 4.37891,-7.5664 -1.46577,-2.98897 -3.51134,-7.31119 -4.54492,-9.60547 -1.00419,-2.22889 -1.50725,-3.23474 -2.11328,-3.31055 z m -27.93942,16.1608 c -3.1761,5.56438 -3.98934,10.75895 -4.86809,16.27215 -0.56066,3.51752 8.65204,2.04037 11.85775,0.14418 6.68117,-3.95183 13.80286,-27.7313 11.40199,-33.74449 -6.1881,2.86159 -14.62322,11.10364 -18.39165,17.32816 z m 164.117149,9.58334 c -0.961412,-0.008 -2.21751,0.26416 -4.138671,0.72461 -2.964616,0.71051 -8.838071,1.78822 -13.050782,2.39453 -8.494167,1.22234 -15.253992,4.60535 -15.669922,7.8418 -0.149438,1.16281 0.582756,3.34554 1.628907,4.84961 2.454383,3.52853 0.610564,4.99424 -7.195313,5.7207 -7.830221,0.72869 -36.499772,10.81753 -43.113278,15.17187 l -5.20508,3.42774 1.45117,7.43359 c 0.79855,4.08866 2.70466,9.05756 4.23633,11.04102 2.05204,2.65716 3.746068,3.53858 6.435546,3.34961 2.007545,-0.14098 7.919114,-0.53648 13.138672,-0.87891 9.994706,-0.65571 33.394463,-7.3444 40.023437,-11.4414 2.150559,-1.32911 8.204492,-2.90283 13.455078,-3.4961 5.275409,-0.59603 10.737843,-2.09561 12.208985,-3.35351 6.522951,-5.57749 6.413764,-31.97499 -0.166016,-39.9668 -1.656181,-2.01161 -2.436709,-2.80486 -4.039063,-2.81836 z M -152.4082,533.76562 c 3.20322,0.10238 4.72491,4.87079 1.12304,7.65235 -0.98499,0.7607 -2.86264,1.24631 -4.17187,1.07812 -2.97421,-0.38222 -2.54941,-5.97512 0.60547,-7.97461 0.87602,-0.55524 1.70415,-0.77947 2.44336,-0.75586 z m 59.466794,51.5 c 2.220982,-0.12942 5.810434,0.27754 12.46289,1.11915 10.133726,1.28356 15.786309,1.36625 19.763672,0.29101 3.074468,-0.83115 6.025661,-0.93646 6.585938,-0.23437 1.25128,1.56793 -3.99092,8.21035 -9.945313,12.60156 l -4.390625,3.23633 -5.34375,-3.65235 c -4.63505,-3.16811 -6.800033,-3.7463 -16.324218,-4.37109 -7.960634,-0.52222 -12.323388,-0.11313 -15.863278,1.49219 v 0.002 c -2.68541,1.21784 -5.60436,2.11962 -6.48829,2.00586 -3.34038,-0.42928 0.14001,-3.45431 6.32618,-5.49805 3.5366,-1.16851 7.566842,-3.37295 8.957028,-4.89843 1.184691,-1.2999 2.038784,-1.96432 4.259766,-2.09376 z m 175.685547,27.38086 c -2.391315,0 -2.245669,4.5602 0.302734,9.48829 1.949866,3.77053 1.898414,4.32854 -0.833984,8.93359 -1.858402,3.1319 -3.160466,8.05219 -3.591797,13.57812 -0.372,4.76667 -1.495781,10.28734 -2.498047,12.26758 -2.644135,5.22471 -2.389301,6.26832 3.615234,14.73242 2.991334,4.21663 6.246555,7.66602 7.232422,7.66602 3.605734,0 9.952678,-6.88697 11.455078,-12.42969 2.002669,-7.38784 0.550873,-22.35246 -2.808593,-28.9375 -1.457069,-2.85615 -2.650391,-6.03237 -2.650391,-7.05859 0,-3.28804 -8.379857,-18.24024 -10.222656,-18.24024 z m -30.479842,0.47762 c -12.724247,0.0793 -37.730134,1.40373 -54.0230349,5.68031 -16.2929011,4.27658 -26.9144601,11.48665 -40.5247661,14.21794 -4.053497,0.81344 -3.885019,-2.78312 -10.539962,-3.58657 -4.133579,-0.49928 -10.271142,-0.63817 -13.640625,-0.3086 -3.369475,0.32958 -10.059278,0.59893 -14.865235,0.59961 -4.805951,6.8e-4 -10.900209,0.38213 -13.542968,0.84766 -2.642754,0.46564 -7.096548,0.55159 -9.898438,0.1914 -6.17032,-0.79298 -12.2768,2.18979 -15.3086,7.47852 -1.32748,2.31583 -4.32438,4.61374 -7.50781,5.75391 -2.91429,1.04379 -6.21489,3.46024 -7.33398,5.37109 -1.11924,1.91085 -3.82193,5.15826 -6.83399,10.31641 -6.57189,7.859 21.97494,92.31675 27.83909,120.25953 3.65027,2.39168 7.93151,18.05347 11.4375,34.24024 0.42147,1.94608 3.108527,6.50175 5.972661,10.125 2.864001,3.62324 6.507572,9.135 8.095703,12.24804 3.123201,6.12201 10.84165,17.51612 15.28125,22.55664 1.519067,1.72479 7.263669,5.45664 12.763672,8.29102 5.499998,2.83438 12.099349,6.33446 14.666015,7.7793 9.539867,5.37029 22.828524,10.9593 25.044922,10.5332 2.921601,-0.56164 4.323223,-8.47548 4.253906,-24.01172 -0.05547,-12.48196 2.375199,-21.06055 5.966797,-21.06055 3.6350669,0 3.1026308,13.64091 -0.898437,23.01758 -2.157332,5.05573 -2.498187,7.63736 -1.669922,12.66602 1.125736,6.83554 1.188637,14.19653 0.451172,52.98242 -0.530801,27.91839 -0.975148,29.74393 -11.613281,47.71094 -4.157719,7.0221 -4.501772,8.39584 -3.865235,15.41601 0.721731,7.95965 4.810834,17.52245 11.9375,27.91795 l 3.914063,5.709 -2.962891,2.3984 c -4.033999,3.2667 -2.603417,8.899 3.03125,11.9375 6.5570645,3.5361 9.3172138,6.718 8.3828125,9.6622 -0.5894664,1.8572 0.2251639,3.4782 2.8125,5.5976 2.0034633,1.6411 7.9244718,7.3337 13.1582035,12.6504 5.233867,5.3166 10.423115,9.666 11.53125,9.666 3.486134,0 6.313281,-3.1277 8.435547,-9.334 3.510666,-10.267 2.956129,-12.0783 -6.460938,-21.1211 -9.063466,-8.7032 -10.996397,-9.4426 -16.0390625,-6.1386 -5.4460005,3.5684 -4.9316578,-0.1333 0.7246095,-5.211 6.300409,-5.6561 6.374092,-8.9199 0.246094,-10.9082 -2.3388026,-0.7589 -4.6576296,-1.7866 -5.1542972,-2.2832 -0.4965317,-0.4966 0.9731781,-3.8289 3.2675781,-7.4043 4.7517351,-7.4051 5.3977251,-14.0288 2.0058591,-20.58787 C 9.6093119,992.68615 8.1337527,989.05467 7.5214844,986.91992 5.8965521,981.25406 10.981468,956.44 15.75,946.76562 c 2.136136,-4.33382 3.884766,-9.18639 3.884766,-10.7832 0,-1.59686 2.319586,-6.15172 5.15625,-10.12109 2.836535,-3.96937 7.405678,-11.71679 10.152343,-17.2168 2.746666,-5.5 8.894243,-16.40974 13.66211,-24.24414 10.102133,-16.59896 11.377621,-22.25753 7.732422,-34.29687 -2.154543,-7.11583 -2.168262,-8.00583 -0.183594,-11.84375 1.180135,-2.28219 2.146484,-6.48167 2.146484,-9.33204 0,-3.91888 1.305027,-7.00352 5.351563,-12.65429 8.043065,-11.23204 8.079032,-12.30811 1.207031,-35.82422 -2.696266,-9.22662 -4.951601,-11.42509 -9.322266,-9.08594 -2.116535,1.13273 -2.570312,2.84501 -2.570312,9.69922 0,9.14461 -2.415388,14.25 -6.742188,14.25 -3.300132,0 -3.254769,-0.65809 0.404297,-5.79492 2.235734,-3.13856 2.926158,-5.80405 2.720703,-10.50196 C 48.988676,770.76628 46.955703,767.10669 35.306641,753.74609 25.102237,742.04241 12.243009,724.42251 8.3691406,716.83594 7.1119526,714.37361 6.3918054,711.0749 6.7695312,709.50391 7.1472648,707.93287 6.6880456,699.74779 5.7480469,691.31445 4.2779127,678.12628 3.3334202,674.58623 -0.99804688,666.01562 c -4.87466442,-9.64541 -5.00895232,-10.28623 -4.19921872,-20 0.4614999,-5.86109 5.59393735,-24.05548 15.4511716,-6.33789 4.272402,8.00648 6.682969,19.61252 6.710938,32.30274 0.0248,11.32199 2.091912,17.43328 8.103515,23.95508 2.877733,3.12189 5.232422,6.94688 5.232422,8.5 0,4.20548 3.90323,13.35208 8.904297,20.86133 2.435331,3.65687 4.429688,7.30099 4.429688,8.0996 0,0.79862 1.556052,2.9077 3.458984,4.68555 1.903068,1.77782 4.309658,4.86443 5.347656,6.85938 1.037866,1.99491 3.124587,4.28838 4.636719,5.09765 4.123601,2.20694 15.003854,-0.98768 19.544922,-5.73828 3.313463,-3.46635 3.657006,-4.71308 3.462891,-12.60742 -0.21947,-8.92857 -2.345576,-13.69508 -7.556641,-16.94336 -3.231334,-2.0143 -4.774828,0.91022 -3.904297,7.40039 0.431467,3.21702 0.154741,5.16406 -0.736328,5.16406 -2.423331,0 -3.550398,-3.00447 -4.25,-11.33398 -0.615731,-7.33206 -0.922409,-7.97267 -3.671875,-7.68164 -3.710653,0.39288 -3.828699,-1.15391 -0.332031,-4.31836 4.678265,-4.23383 2.870605,-9.33399 -3.308594,-9.33399 -4.350134,0 -3.848617,-4.11192 1.748047,-14.32617 4.815602,-8.78876 9.560547,-23.09124 9.560547,-28.81836 0,-1.24478 2.001973,-6.44595 4.451172,-11.55859 4.9851,-20.62315 -2.40951,-26.92773 -19.821639,-26.81926 z m 45.80406,2.1884 c -3.032398,0 -3.026007,0.24008 0.183594,6.22852 4.083467,7.61899 5.795947,18.50477 5.007817,31.82617 -0.41574,7.02659 -0.15425,13.05152 0.62695,14.44726 1.01346,1.81108 0.49125,4.03113 -2.14649,9.11524 -2.685459,5.17621 -3.13746,7.1421 -1.966792,8.55273 2.037592,2.45518 3.732842,2.30441 8.787112,-0.77734 9.98573,-6.08867 11.30005,-16.62944 5.06445,-40.62891 -5.31387,-20.45197 -9.80864,-28.76367 -15.556641,-28.76367 z m 14.841801,1.62891 c -1.21501,0.0769 -1.27735,0.87579 -1.27735,2.30859 0,1.60335 1.91253,5.69626 4.25,9.09375 5.45533,7.92888 7.61809,14.08296 7.69141,21.88281 0.0321,3.43559 0.65016,7.79882 1.37109,9.69532 1.66694,4.38416 -3.03872,20.28683 -7.55859,25.54687 -1.6976,1.97575 -3.08594,4.03908 -3.08594,4.58594 0,0.54682 -2.12771,2.25067 -4.72851,3.78515 -4.44,2.61967 -4.67364,3.09612 -3.82618,7.79883 0.4964,2.7546 1.35155,5.60846 1.90235,6.3418 1.53106,2.03868 2.39699,24.89008 1.08594,28.66601 -0.63654,1.83334 -3.24595,4.68899 -5.79688,6.34571 -2.55093,1.65675 -4.636719,4.08011 -4.636719,5.38476 0,1.3047 3.869969,9.91014 8.601559,19.125 4.73147,9.21487 9.60807,20.89214 10.83594,25.94922 2.49787,10.28754 5.03273,15.19531 7.84766,15.19531 2.3808,0 3.07648,-1.15308 6.75781,-11.1875 1.64387,-4.4807 4.25731,-11.43797 5.80664,-15.46093 3.50626,-9.10322 3.54696,-17.61419 0.12109,-25.16407 -3.11293,-6.86033 -3.27023,-10.57332 -0.5957,-14.10937 1.3724,-1.81444 1.95703,-6.05051 1.95703,-14.16992 0,-8.41746 0.5222,-12.0138 1.90821,-13.16407 2.69719,-2.23849 4.2278,1.23758 5.125,11.63672 0.69093,8.00867 1.57643,10.05514 7.61523,17.61914 7.2696,9.10564 5.9748,38.78862 -2.11133,48.39844 -2.286,2.71669 -3.20312,5.43513 -3.20312,9.49805 0,4.06753 -0.78878,6.40457 -2.76758,8.19531 -1.52267,1.37802 -4.90066,6.31811 -7.50586,10.97656 -4.48467,8.01929 -4.69993,8.97318 -4.05859,17.9375 0.67053,9.37172 0.74646,9.53341 7.55859,15.92969 6.21161,5.83215 6.80465,6.88187 6.08398,10.76367 -0.58973,3.17696 0.27602,6.66346 3.31055,13.33985 2.25947,4.97125 4.46652,11.66276 4.90625,14.87109 1.036,7.55849 -1.70187,18.92681 -5.13867,21.33398 -2.30733,1.61613 -2.54476,2.77408 -1.75195,8.53907 0.74079,5.38575 0.34826,7.90666 -2.03907,13.10937 -2.46587,5.37392 -3.12266,9.97568 -3.96679,27.77344 -1.0796,22.76077 -0.69728,24.66797 4.95312,24.66797 3.77654,0 8.41602,2.20136 8.41602,3.99414 0,2.43492 -5.62647,6.40759 -11.3418,8.00779 -3.2016,0.8964 -6.26398,2.6114 -6.80664,3.8125 -0.5428,1.2012 -1.07372,6.9849 -1.17774,12.8516 -0.25465,14.3489 -3.79365,27.4153 -10.45898,38.6113 -4.8724,8.1842 -5.58278,10.4321 -6.01758,19.043 -0.2712,5.3694 0.18567,12.4521 1.01367,15.7402 1.31,5.2024 1.15024,6.7545 -1.2207,11.959 -2.50693,5.5029 -2.56153,6.2955 -0.69726,9.9004 1.1144,2.155 3.36209,4.8535 4.99609,5.998 2.97493,2.0838 14.75728,2.8749 18.93555,1.2715 3.2108,-1.2321 2.49233,-5.8878 -1.91407,-12.3906 -4.84733,-7.1537 -5.01043,-12.3213 -0.60937,-19.4668 1.80667,-2.9333 3.29297,-6.6695 3.29297,-8.3027 0.004,-1.6333 1.4349,-6.761 3.17968,-11.3965 1.7448,-4.6355 3.84921,-13.5222 4.67774,-19.7481 0.82853,-6.2259 2.12902,-13.3968 2.89062,-15.9355 0.76174,-2.5387 4.01882,-14.3845 7.23829,-26.3242 4.8036,-17.81468 6.74423,-22.92077 10.8125,-28.46292 5.21026,-7.0978 7.40384,-17.06298 4.65625,-21.15039 -1.16947,-1.73995 -1.8408,-1.68907 -5.39454,0.41015 -4.81746,2.84576 -6.18796,2.24621 -7.92382,-3.4707 -0.71574,-2.35684 -2.26496,-6.92401 -3.44336,-10.14844 -1.96526,-5.37641 -1.96676,-6.97002 -0.0176,-19.23047 2.3032,-14.48715 2.8167,-16.04727 4.86523,-14.78125 0.76839,0.4749 1.21767,5.22815 1.04102,11.02149 -0.27907,9.15039 0.44101,16.42214 2.29687,23.1875 0.86187,3.14147 5.36335,2.96294 7.09961,-0.28125 0.76934,-1.43751 2.32579,-7.28747 3.45899,-13 1.1332,-5.71249 3.22315,-13.19685 4.64648,-16.63281 1.42333,-3.43593 2.58789,-7.73673 2.58789,-9.55664 0,-1.81992 1.16571,-6.02722 2.58985,-9.34961 1.42413,-3.32244 3.78072,-12.56009 5.23632,-20.5293 3.28907,-18.00677 6.34092,-27.15255 16.12305,-48.31836 16.91174,-36.59187 22.22004,-56.17363 20.96485,-77.33203 -2.03081,-34.23156 -18.51597,-64.12074 -56.2461,-101.97656 -15.40306,-15.45442 -23.1544,-20.50497 -36,-23.45508 -3.66666,-0.84208 -10.26797,-2.69727 -14.66797,-4.1211 -7.69274,-2.48931 -11.16051,-3.58518 -12.72265,-3.48632 z m -128.419926,16.20312 c 0.708467,0.12878 1.038927,1.2947 0.761719,3.625 -0.647864,5.44634 -4.318675,14.27094 -6.244141,15.00977 -1.005999,0.38604 -4.245401,4.25863 -7.197265,8.60547 -6.592399,9.70779 -10.905219,13.41437 -23.021485,19.78125 -6.840664,3.59467 -10.828083,6.80817 -14.541015,11.71679 -2.813866,3.72012 -8.004803,8.91364 -11.533203,11.54102 -4.000267,2.97861 -7.868191,7.49635 -10.275391,12 -2.123331,3.97262 -4.766114,8.2733 -5.873047,9.55664 -2.497069,2.89504 -5.425173,3.00621 -6.484375,0.24609 -0.538401,-1.403 1.939393,-4.7913 7.558594,-10.33398 4.597999,-4.53528 9.419427,-10.70927 10.712891,-13.71875 1.7332,-4.032 4.227756,-6.61724 9.482422,-9.82617 3.921999,-2.39509 8.838314,-6.39851 10.925781,-8.89844 2.087463,-2.49993 8.47168,-7.24328 14.185547,-10.53906 7.743333,-4.46638 10.840682,-7.08549 12.166015,-10.28516 0.977866,-2.36103 3.741959,-6.46421 6.140625,-9.11914 2.398534,-2.65493 5.922429,-8.24087 7.832032,-12.41211 1.947823,-4.25458 3.885341,-6.69897 5.078124,-6.94141 0.115966,-0.0236 0.224963,-0.0262 0.326172,-0.008 z m 244.857426,0.84375 c -10.93467,-0.007 -12.444,0.28583 -13.7168,2.66406 -1.922,3.5912 0.38096,11.98829 4.69336,17.11328 1.80773,2.14833 8.12493,6.42314 14.03906,9.5 5.91427,3.07692 12.74679,7.34479 15.1836,9.48438 2.43678,2.13959 6.45378,4.77546 8.92578,5.85742 4.63506,2.02874 11.05312,1.56175 14.27539,-1.03906 0.97973,-0.79075 2.97204,-3.9696 4.42578,-7.0625 l 2.64258,-5.62305 -3.36329,-5.32812 c -2.20985,-3.50068 -4.94908,-5.85051 -7.98828,-6.85352 -2.8168,-0.92961 -7.03724,-4.3499 -10.79296,-8.74609 -7.38,-8.63834 -11.12822,-9.95546 -28.32422,-9.9668 z m -22.00782,5.47266 c -0.40577,0.0146 -0.85502,0.0508 -1.36132,0.0996 -6.38026,0.61481 -6.50371,5.41368 -0.34571,13.47851 3.5244,4.61579 5.69812,6.27344 8.22852,6.27344 3.04094,0 3.35352,-0.42371 2.70312,-3.66602 -0.4044,-2.01668 -1.97361,-6.5557 -3.48828,-10.08593 -2.24653,-5.23677 -2.8959,-6.20166 -5.73633,-6.09961 z M 1.2792969,640.93359 c -1.50131674,-0.0198 -2.4268836,1.97435 -2.71875,5.98243 -0.4105361,5.63879 1.81148806,11.61029 5.8046875,15.60351 2.7918651,2.79182 4.2106715,2.68425 5.8886716,-0.45117 2.305599,-4.3081 1.579305,-8.21247 -2.7988279,-15.03516 -2.5963331,-4.04615 -4.6744645,-6.07983 -6.1757812,-6.09961 z M 234.2168,641.13086 c 2.59221,-0.0458 7.08997,2.52856 7.71484,4.91797 0.38893,1.4872 2.43226,3.59606 4.53906,4.68555 2.1068,1.08943 3.83008,2.8577 3.83008,3.92968 0,1.07195 2.54935,3.54589 5.66602,5.49805 6.10199,3.82201 7.87105,5.74192 6.83398,7.41992 -1.37613,2.22667 -7.5552,-0.72635 -15.10547,-7.21875 -3.16546,-2.72198 -8.22472,-5.78603 -11.24219,-6.81055 -5.11828,-1.73623 -5.46066,-2.16833 -5.10546,-6.36523 0.20959,-2.47646 0.86162,-4.98459 1.44922,-5.57227 0.32411,-0.32412 0.82171,-0.47381 1.41992,-0.48437 z m -43.75391,4.98828 c -1.66745,0.0518 -3.13242,0.61953 -4.14844,1.84375 -2.59547,3.1273 -0.44868,8.2926 4.97852,11.98047 7.1232,4.84036 13.67383,4.29276 13.67383,-1.14258 0,-6.48068 -8.54873,-12.86672 -14.50391,-12.68164 z M 71.253906,673.125 c -0.486049,0.0216 -0.977394,0.12632 -1.472656,0.31641 -2.171599,0.83331 -2.756751,2.28276 -4.074219,10.10937 -0.703064,4.17653 -0.235946,5.57676 3.136719,9.41797 5.082932,5.78914 12.9524,23.74105 14.177734,32.34375 0.522267,3.66667 1.558689,7.43202 2.304688,8.36719 2.242265,2.81095 6.068424,-1.86579 7.08789,-8.66407 1.442401,-9.61847 -1.337302,-22.52291 -6.523437,-30.27929 -2.484797,-3.71615 -5.560473,-9.61379 -6.835937,-13.10547 -1.955092,-5.3524 -4.530624,-8.30543 -7.316407,-8.5 -0.160718,-0.0112 -0.322358,-0.0131 -0.484375,-0.006 z m -224.708986,10.55469 c -1.97907,0.0213 -6.72226,10.50566 -6.82226,14.46679 -0.0488,1.92446 0.81015,6.04829 1.91015,9.16602 2.8276,8.01426 2.55354,13.75364 -0.80273,16.79102 -5.3372,4.83016 -7.00573,9.95763 -6.90039,21.20898 0.18253,19.52024 8.40357,44.26757 24.45117,73.60547 2.8892,5.28212 5.25195,10.23211 5.25195,11 0,3.26664 -5.21647,0.98532 -9.26367,-4.05078 -2.4072,-2.9955 -4.87593,-4.94612 -5.48633,-4.33399 -0.61053,0.61217 -1.50986,5.31395 -2,10.44727 -0.56346,5.90192 -2.05367,11.46672 -4.05273,15.13672 -1.73867,3.19207 -4.11237,11.27882 -5.27344,17.9707 -1.16107,6.69188 -3.2394,14.87931 -4.61914,18.19531 -1.37973,3.31605 -3.20074,8.72928 -4.04688,12.0293 -0.84612,3.29998 -5.02169,13.80066 -9.27929,23.33398 -10.63307,23.80899 -11.06061,25.80738 -10.86914,50.93946 0.0976,12.82393 -0.36494,21.93396 -1.13867,22.41211 -0.71694,0.44307 -1.30274,2.15138 -1.30274,3.79687 0,2.34762 1.65028,3.74618 7.66602,6.49218 12.68466,5.7902 19.44826,4.2117 21.10547,-4.92772 0.36053,-1.98834 1.9855,-5.41179 3.60937,-7.60743 2.632,-3.55869 3.03132,-6.11568 3.68945,-23.54883 1.05414,-27.92174 2.53197,-30.34512 33.7793,-55.43359 26.390132,-21.18871 43.482423,-37.53472 43.482422,-41.58203 0,-3.91517 -1.846235,-4.02417 -8.417968,-0.50195 -5.2272,2.80161 -7.582031,2.54632 -7.582032,-0.81836 0,-1.10816 1.745832,-2.30305 4.029297,-2.75977 9.135334,-1.82706 6.102735,-5.75521 -8.091799,-10.48242 -11.88933,-3.95951 -17.70768,-9.14187 -17.00781,-15.15234 0.654,-5.61702 4.53572,-5.10496 7.65625,1.01172 2.8984,5.68137 8.2441,10.1947 16.457031,13.89062 4.394268,1.97741 5.139934,2.01454 5.802735,0.28711 0.953729,-2.48519 -3.902318,-10.84227 -12.669926,-21.80273 -8.33906,-10.42477 -12.80172,-19.67525 -16.32812,-33.84376 -1.49294,-5.99847 -3.90991,-12.58653 -5.37109,-14.63867 -2.93721,-4.12494 -7.81316,-4.93682 -10.4629,-1.74414 -2.30053,2.7721 -3.47968,1.66008 -8.2246,-7.75 -2.28414,-4.52987 -6.77873,-11.15866 -9.98633,-14.73047 -7.72067,-8.59699 -9.93287,-16.77462 -3.44141,-12.7207 1.44093,0.89972 3.63611,1.24456 4.87891,0.76758 1.87066,-0.71777 2.10211,-1.92289 1.33984,-7.00586 -0.83093,-5.54188 -0.67615,-6.09311 1.58399,-5.65234 2.07812,0.40524 2.51609,1.74352 2.58007,7.87304 0.0639,6.09615 1.00614,9.00348 5.39453,16.64258 3.72281,6.48045 6.0997,9.25586 7.92383,9.25586 3.158,0 0.64513,-6.11338 -1.54101,-17.29883 -1.35479,-6.93183 -2.11959,-15.70024 -2.13282,-19.40625 -0.0112,-4.11035 -1.54115,-10.86881 -3.92382,-17.33203 -5.01693,-13.60933 -13.87901,-31.61459 -15.55274,-31.5957 z m 166.466799,7.85742 c -2.52698,-0.0653 -3.1880142,2.73431 -1.791016,8.11719 0.807432,3.1124 1.182796,7.47295 0.833985,9.68945 -0.462532,2.93854 0.116404,4.7089 2.138671,6.53906 1.525335,1.38047 2.773438,3.95889 2.773438,5.73047 0,3.96382 10.497801,18.9347 17.085937,24.36524 5.452797,4.49457 10.216036,5.15416 12.042969,1.66796 1.906265,-3.6379 -0.203824,-7.21773 -8.357422,-14.18359 -8.352933,-7.13613 -11.989617,-13.16082 -13.376953,-22.15039 -1.4688,-9.51787 -4.683166,-16.85823 -8.207031,-18.74414 -1.249431,-0.66867 -2.300252,-1.00949 -3.142578,-1.03125 z m -25.445313,8.0918 c 2.158213,0.72969 0.759528,24.42818 -1.804687,28.34179 -1.170535,1.78643 -2.128906,4.4705 -2.128907,5.96485 0,1.56026 -3.668341,6.40571 -8.61914,11.38086 -4.741334,4.76481 -9.206675,8.66406 -9.921875,8.66406 -3.692265,0 -2.083694,-3.63476 5.931641,-13.40235 9.349597,-11.39348 11.214761,-15.53249 11.378906,-25.25585 0.1152,-6.82689 2.668692,-14.9332 4.943359,-15.69141 0.0771,-0.0257 0.151083,-0.0254 0.220703,-0.002 z m 109.814453,1.19531 c -0.249666,0.005 -0.522232,0.0296 -0.822265,0.0723 -3.445198,0.49028 -4.462894,5.28499 -2.31836,10.92579 0.921869,2.42456 2.192447,3.53352 3.714844,3.24023 2.785872,-0.5365 3.558042,-3.75221 2.392582,-9.96484 -0.622074,-3.31559 -1.219137,-4.30647 -2.966801,-4.27344 z m 0.453125,18.65039 c -1.698952,-0.074 -2.268846,0.64715 -2.412109,2.74609 -0.268532,3.92954 0.07116,7.95599 0.851563,10.0918 0.83973,2.29829 4.015762,2.08918 6.082032,-0.40039 2.69707,-3.24983 0.11748,-11.81204 -3.722658,-12.35742 -0.290848,-0.0413 -0.55612,-0.0695 -0.798828,-0.0801 z m -203.650394,14.50586 c 2.67106,0 4.30946,3.8121 2.82813,6.58008 -1.694,3.16539 -5.12132,3.64085 -6.18945,0.85742 -0.80761,-2.10474 1.60239,-7.4375 3.36132,-7.4375 z m 252.6836,6.8457 c -0.11223,-0.007 -0.22673,-0.006 -0.3418,0.006 -1.10466,0.10954 -2.33398,1.09138 -3.58203,2.99609 -1.93333,2.95064 -2.00019,4.53779 -0.56445,13.4375 2.57746,15.9783 1.09034,31.08257 -4.09766,41.6211 -2.36707,4.8082 -6.63008,11.00115 -9.47461,13.76172 -5.57173,5.4071 -6.04053,6.59615 -3.57226,9.06445 2.19172,2.19175 3.70196,2.01621 8.66796,-1.01172 4.75347,-2.89837 7.68895,-7.81695 11.17188,-18.7207 1.28827,-4.03332 3.87622,-10.93397 5.75195,-15.33399 3.7276,-8.74405 4.44211,-18.81404 1.98438,-28 -0.7848,-2.93332 -1.8218,-8.02673 -2.30274,-11.31836 -0.60788,-4.15928 -1.95721,-6.38981 -3.64062,-6.50195 z m -58.423831,1.1543 c -1.713868,0 -4.69677,1.24381 -6.628906,2.76367 -6.329064,4.97836 -4.763441,13.04812 6.193359,31.91016 3.990932,6.87035 5.717025,15.71591 3.640626,18.6582 -2.556934,3.6234 -7.337291,-4.28656 -9.929688,-16.42969 -2.855203,-13.37454 -6.484617,-20.15586 -12.251953,-22.89258 -8.121596,-3.85398 -14.694041,0.6748 -11.037109,7.60547 0.885334,1.6777 4.181016,6.35145 7.324218,10.38477 3.143331,4.03332 7.018884,10.33333 8.613282,14 3.702934,8.51565 11.933593,32.63431 11.933593,34.9707 0,0.97925 0.869292,3.86158 1.931641,6.4043 l 1.93164,4.62305 10.402348,-0.0195 c 11.2208,-0.022 12.53092,-0.45217 14.86718,-4.89062 3.31801,-6.30365 2.1293,-12.00312 -8.43164,-40.42188 -7.67626,-20.65629 -10.585965,-29.18369 -13.312497,-39 -1.816267,-6.53907 -2.588096,-7.66601 -5.246094,-7.66601 z m -197.580079,7.41015 c 0.63657,-0.0208 1.302,0.28983 1.91406,1.02735 1.12199,1.3519 1.19529,2.91936 0.25196,5.40039 -1.69173,4.45013 -3.76722,4.47045 -4.87696,0.0488 -0.84769,-3.37754 0.80125,-6.41421 2.71094,-6.47657 z m 64.103517,8.58985 c 1.100001,0 2,0.90001 2,2 0,1.10003 -0.899999,2 -2,2 -1.100001,0 -2,-0.89997 -2,-2 0,-1.09999 0.899999,-2 2,-2 z m -63.035157,11.98047 c 2.27671,-0.11344 5.03516,2.58575 5.03516,6.28515 0,1.68669 -0.8067,3.06641 -1.79297,3.06641 -2.72107,0 -6.63481,-4.96204 -5.74414,-7.2832 0.53125,-1.38433 1.46708,-2.0168 2.50195,-2.06836 z m 55.705079,1.77344 c 3.093404,-0.22643 3.578778,3.62239 0.330078,8.5332 -1.283335,1.93995 -2.935476,6.26203 -3.671875,9.60351 -1.255601,5.69624 -4.042714,8.28344 -6.392578,5.9336 -2.826267,-2.82637 2.752919,-20.85024 7.189453,-23.22461 0.977775,-0.52329 1.831059,-0.79346 2.544922,-0.8457 z m 59.5800779,2.24609 c 2.7843971,0 2.0776202,3.60299 -2.8398438,14.49805 -2.5241348,5.59226 -5.25715294,14.35726 -6.0742187,19.47656 -1.9230652,12.04936 -3.6722875,15.52508 -9.1992184,18.28515 -2.489602,1.24328 -6.417448,4.0939 -8.728516,6.33399 -2.3112,2.24005 -5.550687,4.07226 -7.199219,4.07226 -1.648403,0 -4.513722,1.51567 -6.367187,3.36914 -3.262001,3.26196 -3.339798,3.74899 -2.447266,15.15821 0.607068,7.76054 0.444773,12.08097 -0.476562,12.65039 -2.747599,1.69806 -22.819002,-17.98355 -29.697266,-29.1211 -5.670803,-9.18254 -6.554688,-11.55399 -6.554688,-17.61718 10e-7,-3.86238 -1.196013,-10.04392 -2.666015,-13.77344 -1.466665,-3.72094 -2.666016,-8.0479 -2.666016,-9.61523 v -2.84961 l 3.015625,2.83593 c 2.032668,1.90953 3.574344,5.76981 4.72461,11.83399 0.939201,4.95046 2.805685,10.82931 4.146484,13.06445 1.340666,2.23518 2.85368,5.82715 3.363281,7.98242 1.142264,4.83062 4.83639,10.34044 11.900391,17.74805 6.235332,6.53862 10.992007,7.6867 9.671875,2.33398 -0.452134,-1.83333 -1.185927,-4.80188 -1.630859,-6.59765 -1.168268,-4.715 4.152752,-9.06994 15.435546,-12.63086 10.271868,-3.24189 14.705078,-7.3348 14.705078,-13.57227 0,-2.29183 1.5708,-5.56143 4.0000005,-8.32812 3.5910652,-4.08998 4,-5.46821 4,-13.46875 0,-4.90141 0.6751152,-10.22246 1.4980469,-11.82422 2.19986638,-4.28183 8.0704704,-10.24414 10.0859375,-10.24414 z M -124.34766,793.3125 c 1.37827,0 2.10543,1.72694 2.39063,5.66797 0.3176,4.38875 -0.0518,5.66601 -1.64063,5.66601 -2.20213,0 -3.96864,-4.90902 -3.20117,-8.89453 0.2584,-1.34131 1.36117,-2.43945 2.45117,-2.43945 z m 145.224613,5.12305 c 0.66396,-0.006 1.368244,0.27806 2.089844,0.87695 4.549599,3.77582 0.61687,17.27347 -7.164063,24.58398 -2.292533,2.15388 -4.169922,4.60984 -4.169922,5.45899 0,2.74503 -4.5594174,5.92468 -6.6464839,4.63476 -1.6464001,-1.01752 -1.5752848,-1.91229 0.4980469,-6.26562 1.3302652,-2.79334 4.2337902,-7.77091 6.453125,-11.0625 2.219468,-3.29159 4.336536,-8.23294 4.705078,-10.98047 0.6167,-4.59771 2.242495,-7.22864 4.234375,-7.24609 z m 34.681641,2.20703 c 0.836889,0.0373 1.408203,0.67816 1.408203,2.0332 0,1.1164 -2.400652,4.63412 -5.333985,7.81641 -3.465731,3.7598 -5.332031,7.04113 -5.332031,9.37109 0,2.82391 -0.972706,3.9924 -4.576172,5.49805 -2.516534,1.05146 -4.902066,2.44154 -5.302734,3.08984 -0.400668,0.64834 0.987541,5.90804 3.085937,11.6875 4.801467,13.22476 6.038005,20.59364 4.388672,26.14649 -0.712531,2.39852 -2.023662,7.89139 -2.914062,12.20507 -1.212533,5.87369 -2.874161,9.22025 -6.621094,13.33204 -2.751734,3.01965 -5.393273,7.10155 -5.86914,9.07031 -0.475998,1.96872 -2.213198,5.69377 -3.861329,8.27734 -1.648002,2.58354 -3.448046,4.72367 -3.998047,4.75391 -1.459198,0.0824 -1.250503,-0.92374 1.154297,-5.57422 1.184799,-2.291 2.409018,-6.91166 2.71875,-10.26758 0.309869,-3.35592 1.720719,-8.50315 3.136719,-11.4375 2.455601,-5.08887 5.735615,-21.00713 5.494141,-26.66406 -0.60627,-14.20177 -1.562962,-19.59464 -4.371094,-24.625 l -3.132813,-5.60938 5.333985,-4.21679 c 8.318264,-6.57615 17.112538,-15.79264 19.605469,-20.54883 1.459252,-2.784 3.591512,-4.40009 4.986328,-4.33789 z m 17.552734,13.44726 c -1.929087,-0.0989 -3.587362,1.31189 -4.898437,4.22266 -1.073602,2.38333 -2.639317,5.30266 -3.478516,6.48633 -0.83907,1.18363 -1.147903,3.13428 -0.6875,4.33398 1.206531,3.14442 9.104781,2.79964 13.40625,-0.58398 4.271066,-3.35962 4.486302,-7.36183 0.615234,-11.48242 -1.792465,-1.90799 -3.45663,-2.89961 -4.957031,-2.97657 z m 52.091792,16.30274 c -1.18481,-0.0115 -3.70438,0.93662 -6.04296,2.3164 -5.87667,3.46734 -6.19017,6.54207 -1.3711,13.4961 3.58296,5.16994 3.5427,9.67698 -0.0742,8.28906 -1.11053,-0.42618 -4.1323,-3.71772 -6.71484,-7.3125 -5.45413,-7.59167 -7.33905,-7.94403 -16.794922,-3.15234 -7.931323,4.01911 -9.427434,7.11964 -7.740234,16.03906 1.191734,6.29941 3.942593,26.96055 5.847656,43.91211 0.494536,4.40001 1.838109,9.04869 2.984375,10.33203 3.089673,3.457 10.061735,2.95487 14.847655,-1.07227 5.48947,-4.61907 15.6476,-20.15275 20.2832,-31.01757 4.24841,-9.95732 4.81263,-17.94051 1.85743,-26.24024 -1.04387,-2.93148 -2.60803,-9.73494 -3.47657,-15.11914 -0.86853,-5.3842 -2.30079,-10.06565 -3.18359,-10.4043 -0.11037,-0.0423 -0.25261,-0.0648 -0.42188,-0.0664 z m -57.906245,3.58789 c -3.849332,0 -8.996094,3.11358 -8.996094,5.44336 0,0.56727 0.943303,1.97457 2.095703,3.12695 2.103466,2.10342 9.189705,2.79873 13.128907,1.28711 1.224801,-0.47002 2.107422,-2.36807 2.107421,-4.52539 0,-4.08359 -1.952338,-5.33203 -8.335937,-5.33203 z m 36.218745,18.66601 c 2.46801,0 9.54867,6.88004 12.00586,11.66602 1.75054,3.4097 0.23037,7.4917 -3.29296,8.84375 -3.53947,1.35821 -5.39217,0.96304 -9.08204,-1.93945 -2.8324,-2.22796 -3.513668,-3.88718 -3.513668,-8.5586 10e-7,-7.35227 1.032828,-10.01172 3.882808,-10.01172 z m 70.41797,6.03711 c 0.43656,0.0175 0.76316,0.19341 0.97071,0.5293 1.4488,2.3441 -1.6733,6.41519 -6.10742,7.96094 -4.32307,1.50705 -6.71621,1.62782 -10.83008,0.55273 -5.0804,-1.32763 -0.99342,-5.74609 5.31445,-5.74609 2.44573,0 5.86979,-0.93244 7.60937,-2.07227 1.28475,-0.84182 2.31538,-1.25371 3.04297,-1.22461 z m -286.66797,3.34961 c 1.092,0.0176 2.34937,1.02785 3.69532,3.08203 2.0588,3.14208 1.95819,3.70163 -2.08594,11.74805 -2.33546,4.64697 -5.41025,10.10051 -6.83398,12.11719 -2.55213,3.61515 -5.07422,4.82918 -5.07422,2.44336 0,-0.67253 1.30328,-4.12192 2.89648,-7.66602 1.5932,-3.54414 3.2445,-9.73952 3.66797,-13.76562 0.55308,-5.25919 1.9144,-7.98837 3.73437,-7.95899 z m 218.91797,19.0586 c 2.16904,0.039 3.21654,2.09334 1.49805,4.16406 -1.85067,2.22988 -3.10432,2.55592 -4.49219,1.16797 -1.60573,-1.6057 -0.93041,-4.14281 1.33399,-5.01172 0.6,-0.23022 1.15961,-0.32931 1.66015,-0.32031 z m -59.519528,15.66797 c -0.733184,-0.0186 -1.544446,0.59327 -2.445312,1.80859 -1.055203,1.42348 -1.917969,4.74689 -1.917969,7.38476 0,4.05241 -0.930402,5.57291 -6,9.81055 -5.223866,4.36664 -6,5.68599 -6,10.20313 0,6.2578 1.703851,7.61751 6.011719,4.79492 4.280947,-2.80502 4.654297,-2.70318 4.654297,1.2832 0,1.86977 0.994584,5.32107 2.208984,7.66797 3.253735,6.28774 5.547017,24.35664 3.96875,31.26758 -1.208534,5.29247 -0.995176,6.08582 3.232422,11.97265 5.702279,7.93977 5.678806,12.95749 -0.111328,23.46878 -4.785997,8.6889 -8.328258,8.8656 -4.722656,0.2363 1.150133,-2.7527 2.089843,-8.41855 2.089843,-12.59179 0,-6.70462 -0.468401,-8.03791 -4.033203,-11.45313 -3.821465,-3.66115 -3.989633,-4.25963 -3.1875,-11.34961 0.711735,-6.29042 0.351561,-8.42674 -2.253906,-13.38476 -1.760931,-3.35124 -3.407697,-9.34951 -3.8125,-13.88672 -0.535464,-6.00431 -1.259219,-8.09142 -2.916015,-8.40625 -3.294135,-0.62623 -11.220112,7.0133 -13.695313,13.19922 -2.789333,6.97115 -1.987646,11.28132 5.535156,29.72851 5.220665,12.80058 5.831666,15.34574 5.125,21.33399 -1.941199,16.44834 -2.358688,40.87444 -0.732422,42.83394 3.370666,4.0615 8.607712,2.3289 16.017579,-5.2949 9.359999,-9.6303 11.781767,-13.7025 12.792968,-21.5273 0.4652,-3.6003 1.891523,-7.7463 3.169922,-9.2129 5.986001,-6.86729 6.283092,-11.63951 1.910156,-30.66603 -3.629998,-15.79408 -8.745953,-46.94068 -10.074218,-61.33399 -1.1171,-12.10507 -2.614898,-17.83109 -4.814454,-17.88671 z m -218.621092,34.66796 c 1.09298,0.0137 2.22792,0.86601 3.28125,2.55274 0.916,1.46668 2.56043,2.66601 3.6543,2.66601 2.63173,0 2.5489,2.16686 -0.1211,3.19141 -3.27053,1.25503 -5.05189,0.98144 -8.26562,-1.26953 -2.396,-1.67819 -2.70003,-2.57902 -1.58203,-4.66797 0.88966,-1.66241 1.94022,-2.48632 3.0332,-2.47266 z M 0.0078125,959.53125 c 0.31214432,-0.0609 0.63605778,0.25909 1.1035156,0.72656 1.6860019,1.68597 -1.0143658,17.05027 -3.3125,18.84766 -2.9031985,2.27063 -11.2464361,2.78346 -12.8984371,0.79297 -1.243733,-1.49866 -1.056384,-2.04247 0.916015,-2.64258 6.5443998,-1.99109 9.2359262,-4.30332 10.8476565,-9.32227 2.0206082,-6.29224 2.6570325,-8.26826 3.34375,-8.40234 z m -169.5722625,4.57813 c 0.88934,0.148 1.60118,3.84099 1.61914,10.99609 0.0183,7.21066 -0.61795,10.21023 -2.97461,14.02344 -2.83547,4.58789 -7.42569,6.42786 -9.89063,3.96289 -1.526,-1.52591 -0.97565,-3.11133 1.08008,-3.11133 3.35373,0 6.56029,-6.68135 7.48242,-15.58985 0.72774,-7.03093 1.79425,-10.42926 2.6836,-10.28124 z m -20.1211,42.30662 c -0.16292,-0.01 -0.31712,-0.01 -0.46093,0.01 -2.53117,0.2803 -2.126,4.5145 0.26953,15.1758 4.52546,20.14 8.17773,47.3379 8.17773,60.8984 0,7.7733 0.58681,12.8661 1.59961,13.8789 0.88,0.88 5.05964,1.6016 9.28711,1.6016 8.53093,0 10.44531,1.6791 10.44531,9.1562 0,3.108 1.30786,5.0688 5.86719,8.8047 3.226,2.6434 8.176,5.9594 11,7.3691 6.77693,3.3831 9.32719,3.2968 12.86133,-0.4335 5.0084,-5.2868 15.60547,-20.5806 15.60547,-22.5215 0,-5.382 -9.90259,-6.8855 -15.63672,-2.375 -4.5636,3.5897 -7.75957,3.3557 -10.63477,-0.7774 -1.3176,-1.8939 -4.04583,-5.4242 -6.0625,-7.8437 -2.21306,-2.6551 -3.66601,-5.9887 -3.66601,-8.4102 0,-2.7265 -1.72255,-6.0876 -5.37696,-10.4902 -6.54706,-7.8875 -8.85743,-15.5547 -9.99023,-33.1465 -1.26934,-19.7114 -2.30715,-22.7999 -8.32422,-24.7754 -2.73573,-0.8982 -7.26477,-2.8225 -10.0625,-4.2754 -2.14582,-1.1143 -3.75794,-1.7816 -4.89844,-1.8457 z M 53.908203,1035.5 c -2.355117,0.073 -4.74052,1.4746 -6.117187,3.9355 -1.747998,3.1251 -1.657188,4.0237 0.955078,9.42 1.588531,3.2812 2.886718,6.7161 2.886718,7.6328 0,0.9167 0.621662,2.8276 1.38086,4.2461 3.137201,5.8619 11.953125,1.3013 11.953125,-6.1836 0,-5.0766 -4.037722,-15.1681 -7.078125,-17.6914 -1.166699,-0.9683 -2.567399,-1.4034 -3.980469,-1.3594 z m -12.341797,16.1367 c -2.056913,0.059 -3.265625,1.7532 -3.265625,4.8672 0,6.3681 -2.95515,17.8613 -5.574219,21.6816 -3.051581,4.4508 -3.081216,7.2815 -0.09375,9.0215 h 0.002 c 2.946931,1.7163 2.358202,1.7451 7.375,-0.3632 4.2748,-1.7966 15.625,-12.9906 15.625,-15.4102 0,-0.6998 -1.800002,-2.5546 -4,-4.1211 -3.272803,-2.3305 -4,-3.7919 -4,-8.043 0,-3.8961 -0.69375,-5.5676 -2.771485,-6.6797 -1.251166,-0.6696 -2.361914,-0.9796 -3.296875,-0.9531 z m -30.726562,22.3438 c -1.1046656,0 -2.8945634,2.25 -3.9765628,5 -1.082003,2.75 -2.8789418,6.4987 -3.9941406,8.332 -1.1152025,1.8333 -3.23937021,6.034 -4.7207031,9.334 -1.4814652,3.3 -3.848079,7.2324 -5.2578125,8.7383 -4.386266,4.6855 -8.303456,18.844 -7.150391,25.8457 1.503867,9.131 0.927534,10.9149 -5.519531,17.0468 -3.255734,3.0967 -5.919922,6.2225 -5.919922,6.9473 0,2.4326 5.838205,6.788 10.941407,8.1621 5.7637293,1.552 6.7209818,4.7914 1.78125,6.0313 -2.213069,0.5554 -4.554635,-0.086 -7.207032,-1.9746 -4.432002,-3.1558 -8.578324,-3.6046 -10.453125,-1.1309 -3.883865,5.1247 -5.753562,21.7758 -2.779297,24.75 0.889202,0.8891 1.939673,1.46 2.335938,1.2676 0.396268,-0.1926 8.382978,-4.5022 17.748047,-9.5762 20.8006632,-11.2697 20.9421193,-11.5493 14.15624975,-28.3672 -2.29493295,-5.6878 -0.002662,-9.9933 8.63867185,-16.2148 l 6.4980474,-4.6758 -0.708985,-7.8106 c -0.897468,-9.897 0.622785,-15.517 7.15625,-26.4531 2.873998,-4.8107 5.22461,-9.2118 5.224609,-9.7812 0,-1.8854 -14.746301,-15.4707 -16.792968,-15.4707 z m -121.246094,34.9902 c -0.84554,0.043 -1.84372,0.4082 -3.32422,1.0215 -4.4784,1.855 -17.30273,16.1719 -17.30273,19.3164 0,3.1949 5.77331,8.5797 11.33398,10.5723 2.93333,1.0511 7.29762,1.954 9.69922,2.0058 5.57867,0.1201 7.20259,-3.5568 7.45312,-16.875 0.16534,-8.7876 -0.13325,-9.9476 -3.38671,-13.2031 -2.08009,-2.0814 -3.06343,-2.9088 -4.47266,-2.8379 z m 114.1914062,7.6758 c 3.2637317,0 4.6763531,3.3976 2.5019532,6.0176 -1.9860019,2.393 -5.53470376,2.5688 -7.7207032,0.3828 -3.3934675,-3.3935 -0.9412487,-6.4004 5.21875,-6.4004 z m 116.5449238,5.3457 c -2.55055,0.108 -4.38204,2.5113 -5.71485,7.3203 -3.31946,11.9777 -3.41871,12.9048 -1.49804,14.1211 2.59386,1.6427 4.83005,1.5054 13.88672,-0.8535 8.7524,-2.2797 13.96289,-6.2225 13.96289,-10.5664 0,-4.1096 -2.54284,-6.0332 -7.97071,-6.0332 -2.62346,0 -6.11089,-0.9404 -7.75195,-2.0899 -1.6535,-1.1581 -3.11093,-1.7929 -4.39453,-1.8886 -0.1765,-0.013 -0.3495,-0.017 -0.51953,-0.01 z"
       transform="scale(0.26458333)" />
    <g
       aria-label="CLOTHES"
       transform="scale(0.97026459,1.0306467)"
       id="text907"
       style="font-size:45.967px;line-height:1.25;font-family:Cantarell;-inkscape-font-specification:Cantarell;letter-spacing:13.2292px;stroke-width:0.264582">
      <path
         d="m -562.4443,168.17345 -0.93083,-23.27085 h -2.17195 c -0.62055,2.17194 -2.27537,3.41305 -4.34389,3.41305 -0.93084,0 -2.48223,-0.31027 -4.03362,-0.8274 -5.06787,-1.75825 -10.23917,-2.58565 -15.10019,-2.58565 -8.48093,0 -17.06529,3.2062 -23.4777,8.89463 -7.23982,6.41241 -11.17001,15.92761 -11.17001,27.30447 0,21.0989 13.75566,35.16484 34.33743,35.16484 11.68714,0 22.02974,-4.7576 28.2353,-13.13511 l -1.86167,-1.86166 c -7.5501,7.34324 -14.47964,10.44602 -23.064,10.44602 -6.51584,0 -12.30769,-2.06852 -16.75501,-5.99871 -5.68843,-5.06787 -8.89464,-14.37621 -8.89464,-25.95992 0,-18.72011 9.61862,-30.71752 24.61539,-30.71752 5.89528,0 11.27344,2.17194 15.41048,6.20556 3.30963,3.30963 4.86102,6.20556 6.82611,12.92825 z"
         style="font-style:normal;font-variant:normal;font-weight:normal;font-stretch:normal;font-size:103.426px;font-family:'Nimbus Roman';-inkscape-font-specification:'Nimbus Roman, Normal';font-variant-ligatures:normal;font-variant-caps:normal;font-variant-numeric:normal;font-variant-east-asian:normal;stroke-width:0.264582"
         id="path839" />
      <path
         d="m -513.94685,146.35056 h -29.16613 v 1.96509 c 7.55009,0.51713 8.79121,1.86167 8.99806,9.30834 v 45.92115 c -0.20685,7.44667 -1.55139,8.89463 -8.99806,9.30834 v 1.96509 h 55.64319 l 4.96444,-17.99612 h -2.58565 c -4.86102,10.85973 -9.30834,13.5488 -22.65029,13.96251 h -6.92954 c -7.9638,-0.20685 -8.79121,-0.51713 -8.89464,-4.24047 v -48.9205 c 0.20685,-7.55009 1.55139,-8.89463 9.61862,-9.30834 z"
         style="font-style:normal;font-variant:normal;font-weight:normal;font-stretch:normal;font-size:103.426px;font-family:'Nimbus Roman';-inkscape-font-specification:'Nimbus Roman, Normal';font-variant-ligatures:normal;font-variant-caps:normal;font-variant-numeric:normal;font-variant-east-asian:normal;stroke-width:0.264582"
         id="path841" />
      <path
         d="m -431.21563,144.9026 c -19.75436,0 -33.8203,14.78991 -33.8203,35.68197 0,9.72204 3.30963,19.23723 8.89464,25.13251 5.9987,6.51584 15.20362,10.54946 24.30511,10.54946 20.37492,0 34.44086,-14.37622 34.44086,-35.26827 0,-10.23917 -2.99936,-19.13381 -8.68779,-25.23594 -6.51584,-7.1364 -15.20362,-10.85973 -25.13252,-10.85973 z m 0,3.72333 c 4.7576,0 9.5152,1.86167 13.23853,5.1713 5.58501,5.06788 8.79121,14.78992 8.79121,27.09761 0,6.10214 -1.24111,13.23853 -3.41306,18.61668 -0.93083,2.58565 -2.68907,5.1713 -5.06787,7.5501 -3.61991,3.61991 -8.27408,5.48158 -13.75566,5.48158 -4.7576,0 -9.41177,-1.86167 -13.1351,-5.06787 -5.27473,-4.7576 -8.68779,-15.20363 -8.68779,-26.68391 0,-10.54945 2.89593,-20.58178 7.23982,-25.4428 4.03362,-4.44732 9.10149,-6.72269 14.78992,-6.72269 z"
         style="font-style:normal;font-variant:normal;font-weight:normal;font-stretch:normal;font-size:103.426px;font-family:'Nimbus Roman';-inkscape-font-specification:'Nimbus Roman, Normal';font-variant-ligatures:normal;font-variant-caps:normal;font-variant-numeric:normal;font-variant-east-asian:normal;stroke-width:0.264582"
         id="path843" />
      <path
         d="m -334.62544,212.85348 c -8.48093,-0.41371 -9.82547,-1.65482 -9.9289,-9.30834 v -52.85069 h 5.58501 c 11.99741,0.20685 14.16936,1.9651 16.44473,13.23853 h 2.48223 l -0.62056,-17.58242 h -58.33226 l -0.62056,17.58242 h 2.48222 c 2.3788,-11.27343 4.55075,-13.03168 16.44474,-13.23853 h 5.585 v 51.713 c -0.10342,8.89464 -1.03426,9.9289 -9.72204,10.44603 v 1.96509 h 30.20039 z"
         style="font-style:normal;font-variant:normal;font-weight:normal;font-stretch:normal;font-size:103.426px;font-family:'Nimbus Roman';-inkscape-font-specification:'Nimbus Roman, Normal';font-variant-ligatures:normal;font-variant-caps:normal;font-variant-numeric:normal;font-variant-east-asian:normal;stroke-width:0.264582"
         id="path845" />
      <path
         d="m -301.7456,214.81857 h 28.75243 v -1.96509 c -7.75695,-0.62056 -8.99806,-1.86167 -9.10149,-9.30834 v -21.30576 h 31.33808 v 20.16807 c -0.10343,8.79121 -1.03426,9.9289 -9.10149,10.44603 v 1.96509 h 28.75243 v -1.96509 c -7.75695,-0.62056 -8.99806,-1.86167 -9.10149,-9.30834 v -45.92115 c 0.10343,-7.55009 1.13769,-8.58435 9.10149,-9.30834 v -1.96509 h -28.75243 v 1.96509 c 7.9638,0.62056 8.99806,1.65482 9.10149,9.30834 v 20.06465 h -31.33808 v -20.06465 c 0.10343,-7.55009 1.13769,-8.58435 9.10149,-9.30834 v -1.96509 h -28.75243 v 1.96509 c 7.9638,0.62056 8.99806,1.65482 9.10149,9.30834 v 44.78346 c -0.10343,8.79121 -1.03426,9.9289 -9.10149,10.44603 z"
         style="font-style:normal;font-variant:normal;font-weight:normal;font-stretch:normal;font-size:103.426px;font-family:'Nimbus Roman';-inkscape-font-specification:'Nimbus Roman, Normal';font-variant-ligatures:normal;font-variant-caps:normal;font-variant-numeric:normal;font-variant-east-asian:normal;stroke-width:0.264582"
         id="path847" />
      <path
         d="m -154.06278,197.33958 h -2.89593 c -4.96445,10.96315 -9.61862,13.5488 -24.40854,13.65223 h -2.7925 c -10.7563,-0.31028 -10.85973,-0.4137 -10.85973,-4.44732 v -25.54622 h 15.92761 c 8.68778,0.20685 10.03232,1.44796 11.37686,9.9289 h 2.37879 v -23.99484 h -2.37879 c -1.24112,8.37751 -2.68908,9.61862 -11.37686,9.82547 h -15.92761 v -22.96057 c 0.10343,-3.10278 0.51713,-3.51648 3.41306,-3.51648 h 13.96251 c 11.99742,0.20685 14.06594,1.65481 15.72075,10.85973 h 2.58565 l -0.31028,-14.78992 h -54.9192 v 1.96509 c 7.55009,0.51713 8.79121,1.86167 8.99806,9.30834 v 45.92115 c -0.20685,7.44667 -1.55139,8.89463 -8.99806,9.30834 v 1.96509 h 55.85004 z"
         style="font-style:normal;font-variant:normal;font-weight:normal;font-stretch:normal;font-size:103.426px;font-family:'Nimbus Roman';-inkscape-font-specification:'Nimbus Roman, Normal';font-variant-ligatures:normal;font-variant-caps:normal;font-variant-numeric:normal;font-variant-east-asian:normal;stroke-width:0.264582"
         id="path849" />
      <path
         d="m -92.84426,144.9026 h -2.171947 c -0.413704,2.27537 -1.55139,3.51648 -3.309632,3.51648 -1.03426,0 -2.792501,-0.4137 -4.550741,-1.24111 -3.82676,-1.44797 -7.65353,-2.27537 -11.06658,-2.27537 -4.3439,0 -8.89464,1.75824 -12.3077,4.75759 -3.61991,3.20621 -5.48158,7.5501 -5.48158,12.92825 0,8.27408 4.55075,14.06594 16.13446,20.16807 7.44667,4.03362 12.82482,8.17066 15.41047,12.10084 0.930837,1.34454 1.447967,3.51649 1.447967,6.10214 0,6.82611 -5.171297,11.58371 -12.721397,11.58371 -9.30834,0 -15.72075,-5.68843 -20.89205,-18.3064 h -2.3788 l 3.10278,21.92631 h 2.27537 c 0.10343,-1.96509 1.34454,-3.41306 2.89593,-3.41306 1.13768,0 2.89593,0.41371 4.86102,1.13769 3.93019,1.55139 8.17066,2.3788 12.20427,2.3788 11.997415,0 21.098904,-8.17066 21.098904,-18.92696 0,-8.48093 -5.688431,-15.1002 -19.340664,-22.54687 -10.85973,-5.89528 -15.20362,-10.44603 -15.20362,-16.13446 0,-5.68843 4.34389,-9.51519 10.7563,-9.51519 4.65417,0 8.99807,1.9651 12.617975,5.68843 3.206206,3.30963 4.65417,5.99871 6.308987,12.10084 h 2.58565 z"
         style="font-style:normal;font-variant:normal;font-weight:normal;font-stretch:normal;font-size:103.426px;font-family:'Nimbus Roman';-inkscape-font-specification:'Nimbus Roman, Normal';font-variant-ligatures:normal;font-variant-caps:normal;font-variant-numeric:normal;font-variant-east-asian:normal;stroke-width:0.264582"
         id="path851" />
    </g>
    <g
       aria-label="BRAND"
       transform="scale(0.95178731,1.0506549)"
       id="text903"
       style="font-size:46.8594px;line-height:1.25;font-family:Cantarell;-inkscape-font-specification:Cantarell;letter-spacing:26.4583px;stroke-width:0.264582">
      <path
         d="m 95.962445,146.98046 c 8.856455,0.52717 10.016225,1.58151 10.121665,9.48906 v 46.8127 c -0.10544,7.90754 -1.47608,9.17275 -10.121665,9.48905 v 2.00325 H 131.1774 c 8.11842,0 15.70967,-2.21411 19.61072,-5.79887 3.79563,-3.37389 5.90431,-8.11842 5.90431,-13.17925 0,-4.63909 -1.79238,-8.85645 -5.16627,-11.91404 -3.16302,-2.84672 -6.00974,-4.11193 -12.86295,-5.79887 5.48257,-1.37064 7.69669,-2.42498 10.2271,-4.6391 2.63585,-2.31954 4.21736,-6.11517 4.21736,-10.5434 0,-11.8086 -9.48906,-17.92378 -27.62371,-17.92378 H 95.962445 Z m 20.875935,33.42258 c 10.22709,0 15.07706,0.6326 18.87268,2.21411 6.00974,2.42498 8.85646,6.74778 8.85646,13.28469 0,5.69343 -2.21412,9.80536 -6.43148,12.23034 -3.37388,1.89781 -7.69668,2.74128 -14.65532,2.74128 -5.16627,0 -6.64234,-0.9489 -6.64234,-4.32279 z m 0,-4.11193 v -24.24982 c 0.10543,-2.31955 0.52717,-2.95215 2.31954,-3.05758 l 4.6391,-0.10544 c 11.70317,-0.3163 18.55638,5.06083 18.55638,14.44446 0,8.32929 -5.37713,12.75751 -15.49879,12.86295 z"
         style="font-style:normal;font-variant:normal;font-weight:normal;font-stretch:normal;font-size:105.434px;font-family:'Nimbus Roman';-inkscape-font-specification:'Nimbus Roman, Normal';font-variant-ligatures:normal;font-variant-caps:normal;font-variant-numeric:normal;font-variant-east-asian:normal;stroke-width:0.264582"
         id="path854" />
      <path
         d="m 260.43382,212.77127 c -4.00649,-0.3163 -6.11517,-1.37064 -9.17275,-4.95539 l -21.71941,-26.6748 c 13.39012,-2.63585 19.08356,-7.90755 19.08356,-17.60748 0,-4.53366 -1.37065,-8.43472 -4.11193,-11.49231 -4.00649,-4.32279 -12.86295,-7.06408 -22.66831,-7.06408 H 192.7452 v 2.00325 c 7.80211,0.84347 8.85645,1.79238 8.96189,9.48906 v 45.65292 c -0.10544,8.96189 -1.05434,10.01623 -8.96189,10.64883 v 2.00325 h 29.20522 v -2.00325 c -8.11842,-0.52717 -9.38363,-1.79237 -9.48906,-9.48905 v -20.7705 l 5.9043,-0.21087 25.09329,32.47367 h 16.97487 z M 212.46136,152.6739 c 0,-2.95216 1.15977,-3.79563 5.37713,-3.79563 13.17925,0 19.29442,4.53366 19.29442,14.44446 0,5.2717 -2.21411,9.69993 -6.00974,11.70317 -4.84996,2.74129 -8.54015,3.37389 -18.66181,3.58476 z"
         style="font-style:normal;font-variant:normal;font-weight:normal;font-stretch:normal;font-size:105.434px;font-family:'Nimbus Roman';-inkscape-font-specification:'Nimbus Roman, Normal';font-variant-ligatures:normal;font-variant-caps:normal;font-variant-numeric:normal;font-variant-east-asian:normal;stroke-width:0.264582"
         id="path856" />
      <path
         d="m 364.49146,212.77127 c -4.74453,-0.3163 -5.79887,-1.37064 -9.48906,-9.17275 l -26.25306,-59.88651 h -2.10868 l -21.93027,51.76809 c -6.74778,15.39336 -8.01299,17.08031 -13.07382,17.29117 v 2.00325 h 20.87593 v -2.00325 c -5.06083,0 -7.16951,-1.2652 -7.16951,-4.32279 0,-1.26521 0.3163,-2.74128 0.84347,-4.11192 l 4.84997,-12.33578 h 27.6237 l 4.3228,10.12166 c 1.26521,2.84672 2.00324,5.588 2.00324,7.06408 0,2.63585 -1.79237,3.47932 -7.38038,3.58475 v 2.00325 h 26.88567 z m -51.66266,-25.09329 12.12491,-28.99435 12.23035,28.99435 z"
         style="font-style:normal;font-variant:normal;font-weight:normal;font-stretch:normal;font-size:105.434px;font-family:'Nimbus Roman';-inkscape-font-specification:'Nimbus Roman, Normal';font-variant-ligatures:normal;font-variant-caps:normal;font-variant-numeric:normal;font-variant-east-asian:normal;stroke-width:0.264582"
         id="path858" />
      <path
         d="m 467.17836,144.97721 h -24.77698 v 2.00325 c 8.43471,0.52717 9.80536,2.31955 10.12166,13.49555 v 35.53126 l -40.59209,-51.03006 h -18.02921 v 2.00325 c 4.53366,0 6.00973,0.84347 10.22709,5.79887 v 46.49639 c -0.21086,11.17601 -1.58151,12.96838 -10.22709,13.49555 v 2.00325 h 24.77699 v -2.00325 c -8.11842,-0.42173 -9.69993,-2.63585 -9.9108,-13.49555 V 157.9456 l 46.60183,57.98869 h 1.79237 v -55.45828 c 0.31631,-10.96513 1.68695,-12.75751 10.01623,-13.49555 z"
         style="font-style:normal;font-variant:normal;font-weight:normal;font-stretch:normal;font-size:105.434px;font-family:'Nimbus Roman';-inkscape-font-specification:'Nimbus Roman, Normal';font-variant-ligatures:normal;font-variant-caps:normal;font-variant-numeric:normal;font-variant-east-asian:normal;stroke-width:0.264582"
         id="path860" />
      <path
         d="m 496.90492,214.77452 h 29.94326 c 12.23034,0 23.30091,-3.47932 29.83782,-9.38362 6.85321,-6.22061 10.75427,-15.60424 10.75427,-25.83133 0,-9.48906 -3.05759,-17.71292 -8.96189,-23.51179 -7.16951,-7.27494 -18.66182,-11.07057 -33.10628,-11.07057 h -28.46718 v 2.00325 c 8.32929,0.73804 9.17276,1.58151 9.2782,9.48906 v 46.8127 c -0.10544,7.69668 -1.37065,8.96188 -9.2782,9.48905 z m 20.03246,-61.78432 c 0,-3.26846 1.05434,-4.11193 5.48257,-4.11193 9.17276,0 15.92053,1.68695 20.98137,5.2717 8.22385,5.69344 12.54664,14.76076 12.54664,26.14763 0,12.44122 -4.32279,21.29767 -12.86295,26.25307 -5.37713,3.05758 -11.4923,4.32279 -20.66506,4.32279 -4.21736,0 -5.48257,-0.9489 -5.48257,-4.32279 z"
         style="font-style:normal;font-variant:normal;font-weight:normal;font-stretch:normal;font-size:105.434px;font-family:'Nimbus Roman';-inkscape-font-specification:'Nimbus Roman, Normal';font-variant-ligatures:normal;font-variant-caps:normal;font-variant-numeric:normal;font-variant-east-asian:normal;stroke-width:0.264582"
         id="path862" />
    </g>
    <path
       id="path893"
       style="fill:#000000;stroke-width:0.665001;stroke-linejoin:round"
       d="m -123.77268,-36.48259 0.82992,6.868832 v 4.760949 h -1.44849 c 0.48249,0.655474 0.77101,1.46254 0.77101,2.338875 0,0.876334 -0.28852,1.683398 -0.77101,2.338874 h 1.44849 v 4.298963 l -0.82992,6.8688322 h 5.35213 l -0.83044,-6.8688322 v -6.868832 -6.868829 l 0.83044,-6.868832 z m 5.45651,10.641211 v 2.992064 h 91.356693 l -10.754381,-2.992064 z m -21.56819,0.268716 a 3.0589561,3.0589561 0 0 0 -3.03289,3.058729 3.0589561,3.0589561 0 0 0 3.05925,3.059244 3.0589561,3.0589561 0 0 0 3.05872,-3.059244 3.0589561,3.0589561 0 0 0 -3.05872,-3.058729 3.0589561,3.0589561 0 0 0 -0.0264,0 z m 3.44475,0.719854 a 4.1424656,4.1424656 0 0 1 0.72399,2.338875 4.1424656,4.1424656 0 0 1 -0.72347,2.338874 h 1.63917 c 0.66025,-0.655476 1.21337,-1.462537 1.21337,-2.338874 0,-0.876337 -0.55312,-1.683399 -1.21337,-2.338875 z m 2.61225,0 c 0.48248,0.655474 0.77101,1.46254 0.77101,2.338875 0,0.876334 -0.28853,1.683398 -0.77101,2.338874 h 2.16369 c 0.66024,-0.655476 1.21336,-1.462537 1.21336,-2.338874 0,-0.876337 -0.55312,-1.683399 -1.21336,-2.338875 z m 3.13624,0 c 0.48249,0.655474 0.77101,1.46254 0.77101,2.338875 0,0.876334 -0.28852,1.683398 -0.77101,2.338874 h 2.21795 c 0.66024,-0.655476 1.21336,-1.462537 1.21336,-2.338874 0,-0.876337 -0.55312,-1.683399 -1.21336,-2.338875 z m 3.1905,0 c 0.48249,0.655474 0.77101,1.46254 0.77101,2.338875 0,0.876334 -0.28852,1.683398 -0.77101,2.338874 h 2.13682 c 0.66024,-0.655476 1.21336,-1.462537 1.21336,-2.338874 0,-0.876337 -0.55312,-1.683399 -1.21336,-2.338875 z m -12.35738,0.243912 a 2.0950833,2.0950833 0 0 1 2.09496,2.094963 2.0950833,2.0950833 0 0 1 -2.09496,2.094962 2.0950833,2.0950833 0 0 1 -2.09548,-2.094962 2.0950833,2.0950833 0 0 1 2.09548,-2.094963 z m 21.54183,2.430343 v 2.992065 h 80.602312 l 10.754381,-2.992065 z" />
    <path
       style="fill:#000000;fill-opacity:1;stroke:none;stroke-width:0.264583px;stroke-linecap:butt;stroke-linejoin:miter;stroke-opacity:1"
       d="m -69.50587,118.34656 c 0.476015,0.14673 1.038805,0.55091 1.220308,0.71736 0.532924,0.48872 0.705933,0.7475 0.938989,1.34102 0.634032,-0.82133 0.491655,-0.76075 0.380365,-1.25286 -0.07695,-0.34026 -0.211176,-0.58193 -0.530315,-0.72281 -0.218599,-0.0965 -0.49522,0.0606 -0.853278,0.0267 -0.358058,-0.0339 -0.635317,-0.51459 -1.156065,-0.1094 z"
       id="path925" />
  </g>
</svg>
